<?xml version="1.0" standalone="no"?>
<!DOCTYPE svg PUBLIC "-//W3C//DTD SVG 20010904//EN"
 "http://www.w3.org/TR/2001/REC-SVG-20010904/DTD/svg10.dtd">
<svg version="1.0" xmlns="http://www.w3.org/2000/svg"
 width="512.000000pt" height="512.000000pt" viewBox="0 0 512.000000 512.000000"
 preserveAspectRatio="xMidYMid meet">

<g transform="translate(0.000000,512.000000) scale(0.100000,-0.100000)"
fill="#000000" stroke="none">
<path d="M2374 4881 c-136 -98 -202 -157 -259 -232 -102 -131 -162 -283 -191
-480 -9 -63 -18 -116 -19 -117 -2 -2 -40 10 -85 27 -189 73 -402 101 -637 83
-179 -14 -258 -33 -295 -70 -30 -30 -67 -141 -94 -278 -27 -135 -25 -362 4
-479 28 -111 86 -233 152 -319 l50 -65 -33 -5 c-17 -3 -66 -8 -107 -11 -164
-14 -311 -87 -443 -221 -83 -84 -214 -252 -222 -286 -8 -30 27 -181 55 -246
28 -63 80 -124 137 -160 26 -17 118 -54 203 -83 85 -28 158 -55 162 -58 3 -3
-5 -33 -19 -66 -68 -160 -100 -403 -86 -650 l8 -140 60 -16 c33 -9 138 -46
234 -83 253 -97 327 -117 456 -123 169 -8 253 16 431 122 59 36 110 65 113 64
3 0 32 -53 64 -117 75 -153 168 -283 292 -407 112 -112 217 -187 320 -229 39
-16 87 -35 107 -43 36 -15 38 -15 110 22 91 48 261 151 347 212 104 74 179
151 234 241 27 45 54 82 59 82 5 0 34 -13 66 -29 222 -112 527 -163 849 -142
87 6 163 11 170 11 9 0 13 21 13 76 0 68 -29 441 -48 620 l-8 71 126 11 c69 7
148 18 175 25 l50 12 -1 100 c-1 110 -31 234 -101 410 -120 305 -242 489 -430
649 -46 38 -83 73 -83 76 0 3 35 46 77 95 138 161 251 361 325 576 32 93 32
97 36 314 4 218 3 220 -20 255 -67 99 -370 250 -619 307 -115 26 -427 23 -531
-5 -82 -22 -157 -57 -226 -104 -24 -17 -45 -28 -46 -26 -1 1 -15 39 -31 83
-50 143 -134 294 -287 522 -96 143 -145 192 -236 241 -53 29 -162 61 -203 62
-9 0 -66 -35 -125 -79z m262 -21 c103 -51 148 -107 330 -413 173 -289 204
-358 204 -450 0 -41 -6 -60 -34 -101 -59 -87 -184 -326 -237 -452 -46 -110
-56 -125 -100 -157 l-48 -37 -36 44 c-20 25 -49 49 -65 54 l-28 10 3 464 c2
396 2 422 -5 183 -4 -154 -8 -359 -9 -457 l-1 -176 -59 -7 c-103 -12 -173 -74
-210 -187 -13 -37 -27 -70 -31 -73 -22 -13 -52 45 -124 241 -156 417 -186 533
-186 703 0 249 88 459 264 636 99 99 246 204 287 204 14 1 53 -12 85 -29z
m1424 -759 c151 -34 257 -78 469 -195 l94 -51 -7 -211 c-4 -136 -11 -231 -21
-269 -9 -32 -53 -135 -99 -229 -174 -358 -394 -574 -651 -641 -70 -18 -495
-22 -495 -5 0 5 15 31 34 57 44 63 76 137 76 178 0 45 -37 96 -90 123 l-45 22
0 78 c0 42 -3 88 -8 102 -7 24 -2 28 160 105 92 44 226 113 298 154 143 81
385 230 385 238 0 2 -3 2 -7 0 -5 -2 -89 -51 -188 -109 -359 -209 -627 -348
-669 -348 -14 0 -37 5 -52 11 -20 7 -42 7 -77 -2 -26 -6 -50 -9 -53 -6 -3 3
-8 31 -10 63 -3 33 -10 71 -16 87 -14 36 -57 66 -110 76 -36 6 -43 11 -41 29
3 28 212 406 276 500 141 206 310 277 632 267 78 -3 164 -12 215 -24z m-2473
-40 c119 -25 301 -86 324 -110 9 -9 21 -49 28 -89 17 -106 67 -249 175 -494
53 -119 96 -222 96 -228 0 -8 -10 -9 -30 -5 -72 16 -148 -47 -158 -131 -2 -24
-8 -44 -12 -44 -20 0 -401 419 -493 543 -27 37 -52 67 -54 67 -6 0 5 -18 64
-97 63 -87 105 -134 323 -364 93 -98 172 -190 178 -208 11 -30 10 -32 -28 -51
-86 -44 -119 -130 -81 -215 12 -26 19 -50 17 -53 -5 -4 -306 99 -434 149 -171
68 -296 145 -401 249 -236 234 -299 520 -205 932 31 138 31 136 67 143 204 37
458 39 624 6z m1029 -781 c32 -11 64 -55 83 -112 7 -21 18 -38 25 -38 6 0 34
23 61 51 90 91 179 116 232 63 26 -26 26 -27 19 -131 l-6 -105 38 5 c20 2 63
15 94 27 54 21 59 22 83 6 30 -20 34 -69 10 -136 -21 -60 -19 -67 22 -75 114
-21 154 -96 97 -181 -15 -21 -46 -61 -70 -88 -24 -26 -44 -54 -44 -60 0 -7 16
-28 36 -47 48 -46 64 -79 64 -132 0 -39 -5 -49 -34 -75 -19 -17 -49 -33 -68
-37 -18 -4 -50 -11 -72 -17 l-38 -9 6 -78 c5 -54 3 -86 -5 -105 -14 -31 -56
-56 -92 -56 -26 0 -107 27 -179 59 -25 12 -52 19 -60 16 -7 -3 -33 -37 -57
-76 -51 -83 -93 -109 -138 -87 -41 20 -62 57 -78 138 -26 129 -22 120 -49 111
-13 -5 -50 -26 -82 -47 -46 -30 -71 -39 -116 -42 -107 -8 -145 45 -134 184 l7
81 -73 7 c-105 10 -143 22 -172 57 -50 59 -22 136 68 184 37 20 45 38 23 52
-47 29 -63 120 -28 165 11 13 38 33 60 43 l41 18 -2 86 c-1 60 4 98 15 124 19
45 38 47 163 16 53 -14 89 -18 95 -12 5 5 20 46 33 92 41 141 119 197 222 161z
m-1436 -476 c47 -31 126 -76 175 -100 118 -57 397 -160 458 -169 26 -4 46 -10
44 -14 -2 -3 -9 -21 -16 -38 l-13 -33 -131 6 c-73 3 -137 7 -143 9 -27 8 -506
-17 -574 -30 l-75 -14 65 4 c36 3 110 9 165 15 110 10 535 12 630 1 l60 -6 6
-42 c11 -86 96 -154 200 -161 l57 -4 7 -55 c4 -31 3 -59 -2 -63 -4 -5 -79 -44
-165 -88 -157 -81 -316 -140 -438 -163 -93 -17 -272 -15 -350 4 -81 19 -609
182 -656 202 -46 19 -131 101 -156 150 -32 61 -68 176 -61 189 29 48 196 246
246 291 70 64 212 139 292 153 28 6 104 10 170 11 l121 1 84 -56z m3148 -331
c158 -159 253 -303 330 -503 40 -104 173 -492 169 -496 -3 -3 -117 -16 -255
-28 l-63 -6 -18 43 c-10 23 -26 66 -36 96 -26 79 -158 293 -225 364 -122 131
-234 172 -582 217 -227 29 -268 36 -268 47 0 3 9 16 19 29 11 14 22 43 26 66
l7 41 92 -7 c147 -11 279 -43 466 -112 208 -78 299 -125 457 -234 65 -45 107
-70 93 -55 -40 43 -235 169 -355 229 -210 104 -501 186 -665 186 -68 0 -81 3
-90 19 -5 11 -10 22 -10 25 0 3 57 5 128 5 276 -1 428 38 582 149 30 22 61 41
68 41 7 1 65 -52 130 -116z m-941 -342 c56 -19 158 -39 278 -56 105 -15 219
-33 254 -41 174 -39 320 -181 432 -419 64 -137 86 -242 114 -554 13 -152 27
-301 30 -332 l6 -56 -157 -6 c-307 -12 -534 25 -736 120 -53 25 -99 52 -102
59 -3 8 -1 27 5 42 23 57 59 271 70 406 19 239 1 326 -85 416 -91 94 -256 293
-262 315 -3 12 -4 37 -2 56 l3 33 191 -189 c134 -134 266 -280 445 -495 275
-330 330 -393 248 -285 -290 381 -588 715 -841 942 l-58 51 28 10 c40 15 43
15 139 -17z m-1242 -120 c3 -6 -19 -48 -49 -94 -80 -124 -109 -188 -151 -327
-44 -146 -57 -301 -35 -422 15 -83 14 -84 -101 -158 -126 -81 -216 -113 -330
-118 -126 -6 -222 14 -414 85 -82 30 -188 68 -234 84 -46 16 -88 33 -95 38
-17 14 -3 405 19 505 19 93 71 240 89 255 9 8 49 -2 142 -34 170 -58 281 -73
437 -56 129 14 303 66 460 138 54 25 101 43 103 40 7 -7 -76 -77 -181 -152
-49 -35 -227 -144 -395 -241 -295 -172 -348 -204 -305 -187 59 23 479 255 580
321 111 71 284 200 360 269 68 62 88 73 100 54z m341 -63 c14 -47 31 -75 66
-112 l47 -49 66 6 c52 5 65 3 65 -8 0 -8 6 -65 14 -127 25 -190 28 -240 46
-623 l17 -370 1 250 c1 138 -5 333 -13 435 -14 185 -42 438 -50 450 -3 4 16
34 40 66 24 33 45 65 45 72 0 19 23 15 92 -18 78 -37 158 -41 218 -10 l39 20
94 -98 c166 -171 206 -221 222 -275 51 -171 -37 -678 -147 -850 -78 -121 -159
-188 -407 -337 -180 -107 -182 -108 -315 -41 -191 94 -407 323 -529 558 -173
335 -161 608 40 961 l65 112 76 0 c61 0 88 5 127 24 28 14 53 25 56 25 3 1 14
-27 25 -61z"/>
<path d="M858 2413 c6 -2 18 -2 25 0 6 3 1 5 -13 5 -14 0 -19 -2 -12 -5z"/>
</g>
</svg>
